<?xml version="1.0" encoding="UTF-8" standalone="no"?>
<svg
   version="1.0"
   width="364.67599pt"
   height="334.21408pt"
   viewBox="0 0 364.67599 334.21408"
   preserveAspectRatio="xMidYMid meet"
   id="svg28"
   sodipodi:docname="logo.svg"
   inkscape:version="1.1.1 (3bf5ae0d25, 2021-09-20)"
   xmlns:inkscape="http://www.inkscape.org/namespaces/inkscape"
   xmlns:sodipodi="http://sodipodi.sourceforge.net/DTD/sodipodi-0.dtd"
   xmlns="http://www.w3.org/2000/svg"
   xmlns:svg="http://www.w3.org/2000/svg">
  <defs
     id="defs32" />
  <sodipodi:namedview
     id="namedview30"
     pagecolor="#ffffff"
     bordercolor="#666666"
     borderopacity="1.0"
     inkscape:pageshadow="2"
     inkscape:pageopacity="0.0"
     inkscape:pagecheckerboard="0"
     inkscape:document-units="pt"
     showgrid="false"
     fit-margin-top="0"
     fit-margin-left="0"
     fit-margin-right="0"
     fit-margin-bottom="0"
     inkscape:zoom="2.8040685"
     inkscape:cx="-28.886598"
     inkscape:cy="206.12906"
     inkscape:window-width="3840"
     inkscape:window-height="2066"
     inkscape:window-x="-11"
     inkscape:window-y="-11"
     inkscape:window-maximized="1"
     inkscape:current-layer="g26" />
  <g
     transform="matrix(0.1,0,0,-0.1,-49.242003,360.7081)"
     fill="#000000"
     stroke="none"
     id="g26">
    <path
       d="m 2212.8282,3600 c -81,-13 -222,-54 -310,-91 -160,-66 -348,-218 -444,-359 l -44,-65 -79,4 c -93,4 -121,-2 -148,-31 -30,-33 -26,-83 9,-119 25,-25 37,-29 81,-29 49,0 51,-1 44,-22 -89,-278 -81,-585 22,-838 94,-232 291,-437 520,-541 78,-36 221,-78 294,-87 l 55,-7 6,-80 c 6,-72 10,-82 38,-107 39,-35 80,-36 118,-4 25,22 28,31 31,105 l 4,80 47,6 c 516,71 895,440 947,922 8,75 -6,118 -47,138 -42,22 -350,21 -384,-1 -46,-30 -53,-105 -13,-141 16,-14 43,-19 136,-23 l 117,-5 -4,-25 c -8,-61 -54,-181 -97,-254 -53,-91 -169,-213 -263,-276 -108,-73 -253,-129 -383,-148 l -58,-9 v 138 c 0,156 24,320 65,439 140,411 517,739 848,740 79,0 119,17 136,58 15,37 6,74 -26,103 -22,21 -33,24 -108,22 -144,-3 -308,-52 -440,-131 -214,-128 -393,-325 -509,-563 l -61,-126 -28,67 c -41,101 -123,232 -208,334 -119,142 -250,247 -402,323 l -78,39 46,58 c 121,148 318,265 528,313 110,25 329,22 432,-5 106,-29 205,-79 289,-147 79,-63 117,-70 161,-32 20,17 27,33 28,61 1,35 -5,44 -60,97 -99,93 -223,157 -388,200 -92,24 -320,34 -420,19 z m -595,-777 c 279,-149 508,-463 579,-793 19,-89 32,-266 26,-348 l -7,-84 -45,7 c -92,14 -161,36 -262,87 -81,40 -121,68 -187,131 -166,157 -247,325 -274,571 -16,141 7,337 52,449 13,33 23,31 118,-20 z"
       id="path8" />
    <path
       d="m 2263.5502,3138 c -64,-14 -135,-88 -149,-154 -30,-137 66,-254 208,-254 113,0 200,87 200,200 0,143 -119,239 -259,208 z"
       id="path10" />
    <path
       d="m 1016.6009,985.08367 c -25.36351,0 -47.55651,-11.1257 -62.35191,-30.3431 L 794.66958,722.11008 635.09028,954.74057 c -15.85211,19.2174 -36.98841,30.3431 -63.409,30.3431 -43.32966,0 -79.26125,-34.38878 -79.26125,-75.85769 0,-16.18304 4.22709,-29.33174 12.68169,-41.46891 L 709.06749,581.52033 V 343.83259 c 0,-44.50341 40.1591,-78.89227 85.60209,-78.89227 44.3862,0 85.60211,34.38886 85.60211,78.89227 v 237.68774 l 203.96541,286.23674 c 8.4546,12.13717 12.6821,25.28587 12.6821,41.46891 0,41.46891 -35.932,75.85769 -80.3183,75.85769 z m 479.2382,3.0344 c -185.9998,0 -368.829,-147.66981 -368.829,-361.08307 0,-213.41324 182.8292,-361.08324 368.829,-361.08324 185.9996,0 368.8288,147.67 368.8288,361.08324 0,213.41326 -182.8292,361.08307 -368.8288,361.08307 z m 0,-157.78419 c 104.625,0 185.9996,-81.92643 185.9996,-203.29888 0,-121.37246 -83.4884,-202.28743 -185.9996,-202.28743 -102.5112,0 -187.0568,80.91497 -187.0568,202.28743 0,121.37245 84.5456,203.29888 187.0568,203.29888 z M 2518.5663,398.45021 2392.8049,542.07428 c 85.6023,39.44605 137.3866,116.31527 137.3866,204.3103 0,127.44115 -106.7386,234.65339 -271.602,234.65339 H 2065.192 c -56.0113,0 -96.1703,-38.43452 -96.1703,-92.04075 V 347.87835 c 0,-45.51486 39.1022,-82.93803 87.7156,-82.93803 47.5568,0 85.6022,37.42317 85.6022,82.93803 v 166.88713 h 79.2612 l 175.4316,-214.42486 c 13.7387,-18.20587 35.9319,-30.34311 63.4091,-30.34311 45.4431,0 79.2612,35.4003 79.2612,77.88084 0,20.22875 -10.568,36.41174 -21.1363,50.57186 z m -376.2268,440.98666 h 106.7386 c 60.2385,0 113.0796,-17.19443 113.0796,-93.05229 0,-74.84635 -52.8411,-90.01791 -113.0796,-90.01791 H 2142.3395 Z M 3220.0489,661.42386 h -161.6927 c -39.1021,0 -75.034,-27.30881 -75.034,-67.76629 0,-39.44605 35.9319,-66.75485 75.034,-66.75485 h 86.6588 c -12.6818,-70.80059 -97.2271,-103.16658 -156.409,-103.16658 -108.8517,0 -194.454,91.02934 -194.454,203.29886 0,112.26951 87.7159,203.29888 194.454,203.29888 58.1252,0 88.7726,-26.29741 96.1704,-29.3316 10.5683,-6.06865 32.7615,-21.2403 65.5228,-21.2403 40.1591,0 80.3181,26.29742 80.3181,74.84638 0,41.46891 -31.7047,69.78912 -78.2043,97.09793 -40.1592,20.22868 -95.1134,36.41178 -166.9773,36.41178 -182.829,0 -373.056,-147.66981 -373.056,-361.08307 0,-213.41324 188.1133,-361.08324 376.227,-361.08324 156.4083,0 317.0449,95.07526 325.499,291.29407 3.171,60.68623 -28.5337,104.17803 -94.0568,104.17803 z m 550.2846,326.69421 c -185.9999,0 -368.8292,-147.66981 -368.8292,-361.08307 0,-213.41324 182.8293,-361.08324 368.8292,-361.08324 186.0174,0 368.8465,147.67 368.8465,361.08324 0,213.41326 -182.8291,361.08307 -368.8465,361.08307 z m 0,-157.78419 c 104.6425,0 186.0174,-81.92643 186.0174,-203.29888 0,-121.37246 -83.4886,-202.28743 -186.0174,-202.28743 -102.5113,0 -187.0565,80.91497 -187.0565,202.28743 0,121.37245 84.5452,203.29888 187.0565,203.29888 z"
       fill="white"
       id="path2-1"
       style="fill:#000000;stroke-width:34.4626" />
  </g>
</svg>
