<?xml version="1.0" encoding="UTF-8" standalone="no"?>
<svg
   viewBox="0 0 116 93"
   fill="white"
   version="1.1"
   id="svg23"
   sodipodi:docname="logo.svg"
   inkscape:version="1.1.1 (3bf5ae0d25, 2021-09-20)"
   xmlns:inkscape="http://www.inkscape.org/namespaces/inkscape"
   xmlns:sodipodi="http://sodipodi.sourceforge.net/DTD/sodipodi-0.dtd"
   xmlns="http://www.w3.org/2000/svg"
   xmlns:svg="http://www.w3.org/2000/svg">
 
  <path
     d="M20.9569 70.88C20.2369 70.88 19.6069 71.21 19.1869 71.78L14.6569 78.68L10.1269 71.78C9.6769 71.21 9.0769 70.88 8.3269 70.88C7.0969 70.88 6.0769 71.9 6.0769 73.13C6.0769 73.61 6.1969 74 6.4369 74.36L12.2269 82.85V89.9C12.2269 91.22 13.3669 92.24 14.6569 92.24C15.9169 92.24 17.0869 91.22 17.0869 89.9V82.85L22.8769 74.36C23.1169 74 23.2369 73.61 23.2369 73.13C23.2369 71.9 22.2169 70.88 20.9569 70.88ZM34.5611 70.79C29.2811 70.79 24.0911 75.17 24.0911 81.5C24.0911 87.83 29.2811 92.21 34.5611 92.21C39.8411 92.21 45.0311 87.83 45.0311 81.5C45.0311 75.17 39.8411 70.79 34.5611 70.79ZM34.5611 75.47C37.5311 75.47 39.8411 77.9 39.8411 81.5C39.8411 85.1 37.4711 87.5 34.5611 87.5C31.6511 87.5 29.2511 85.1 29.2511 81.5C29.2511 77.9 31.6511 75.47 34.5611 75.47ZM63.5934 88.28L60.0234 84.02C62.4534 82.85 63.9234 80.57 63.9234 77.96C63.9234 74.18 60.8934 71 56.2134 71H50.7234C49.1334 71 47.9934 72.14 47.9934 73.73V89.78C47.9934 91.13 49.1034 92.24 50.4834 92.24C51.8334 92.24 52.9134 91.13 52.9134 89.78V84.83H55.1634L60.1434 91.19C60.5334 91.73 61.1634 92.09 61.9434 92.09C63.2334 92.09 64.1934 91.04 64.1934 89.78C64.1934 89.18 63.8934 88.7 63.5934 88.28ZM52.9134 75.2H55.9434C57.6534 75.2 59.1534 75.71 59.1534 77.96C59.1534 80.18 57.6534 80.63 55.9434 80.63H52.9134V75.2ZM83.5065 80.48H78.9165C77.8065 80.48 76.7865 81.29 76.7865 82.49C76.7865 83.66 77.8065 84.47 78.9165 84.47H81.3765C81.0165 86.57 78.6165 87.53 76.9365 87.53C73.8465 87.53 71.4165 84.83 71.4165 81.5C71.4165 78.17 73.9065 75.47 76.9365 75.47C78.5865 75.47 79.4565 76.25 79.6665 76.34C79.9665 76.52 80.5965 76.97 81.5265 76.97C82.6665 76.97 83.8065 76.19 83.8065 74.75C83.8065 73.52 82.9065 72.68 81.5865 71.87C80.4465 71.27 78.8865 70.79 76.8465 70.79C71.6565 70.79 66.2565 75.17 66.2565 81.5C66.2565 87.83 71.5965 92.21 76.9365 92.21C81.3765 92.21 85.9365 89.39 86.1765 83.57C86.2665 81.77 85.3665 80.48 83.5065 80.48ZM99.1275 70.79C93.8475 70.79 88.6575 75.17 88.6575 81.5C88.6575 87.83 93.8475 92.21 99.1275 92.21C104.408 92.21 109.598 87.83 109.598 81.5C109.598 75.17 104.408 70.79 99.1275 70.79ZM99.1275 75.47C102.098 75.47 104.408 77.9 104.408 81.5C104.408 85.1 102.038 87.5 99.1275 87.5C96.2175 87.5 93.8175 85.1 93.8175 81.5C93.8175 77.9 96.2175 75.47 99.1275 75.47Z"
     fill="white"
     id="path2"
     style="fill:#000000" />
  <g
     clip-path="url(#clip0_79_48)"
     id="g16">
    <path
       d="m 56.8126,20.1914 c -1.1959,-0.2017 -2.2213,-0.7191 -3.1578,-1.593 -1.0905,-1.0178 -1.6508,-2.1111 -1.7761,-3.4654 -0.1423,-1.5386 0.1706,-2.6634 1.0692,-3.8435 1.5182,-1.99375 4.2124,-2.86756 6.6393,-2.15332 1.7395,0.51193 3.014,1.52162 3.753,2.97302 1.2973,2.548 0.3601,5.6894 -2.1525,7.2151 -0.6399,0.3885 -1.3279,0.6703 -1.9248,0.7884 -0.6011,0.1189 -1.9545,0.1624 -2.4503,0.0787 z"
       fill="white"
       id="path4"
       style="fill:#000000"
       sodipodi:nodetypes="ccccscccc" />
    <path
       d="M 58.1233,0.13489 C 57.0575,0.127863 55.9954,0.154375 55.286,0.217136 50.4394,0.645918 45.6084,2.3163 41.6235,4.94054 40.2205,5.86449 39.2893,6.60108 37.857,7.92186 36.8566,8.84438 36.4531,9.17112 36.3352,9.153 36.2469,9.13943 35.2376,8.35699 34.0924,7.41432 30.7252,4.64263 30.252945,4.5936518 29.481361,4.6476755 28.959004,4.684249 28.815776,4.7486344 28.472776,4.9240144 27.026176,5.6634644 26.65,7.56999 27.7142,8.70597 c 0.1746,0.18641 1.4479,1.27009 2.8299,2.40813 1.382,1.1381 2.5368,2.1405 2.5664,2.2279 0.0388,0.115 -0.1263,0.5024 -0.5981,1.4008 -0.935,1.7805 -1.2288,2.4311 -1.7051,3.7752 -1.2098,3.4137 -1.6449,6.7109 -1.3907,10.5441 0.2225,3.3565 1.1986,6.6838 2.908,9.9113 1.4753,2.7856 3.0779,4.8791 5.4226,7.0843 2.6765,2.5171 5.6682,4.4102 9.2118,5.8292 2.2983,0.9204 5.5535,1.7176 7.7145,1.8891 l 0.5976,0.0474 0.0344,2.9519 c 0.0377,3.218 0.0539,3.3437 0.5191,4.0326 0.2804,0.415 0.9461,0.8528 1.5246,1.0027 1.143,0.2961 2.4532,-0.2608 2.9997,-1.275 0.2955,-0.5485 0.3325,-0.9848 0.3325,-3.8937 v -2.8168 l 0.6943,-0.0482 c 1.2583,-0.087 3.8567,-0.639 5.7116,-1.2137 5.3699,-1.6635 10.4749,-5.1379 13.9643,-9.5039 2.0348,-2.546 3.7974,-5.9912 4.6644,-9.1161 0.7008,-2.5259 0.8341,-3.9304 0.441,-4.6573 C 85.7949,28.616 85.202,28.181 84.3657,27.9712 83.7673,27.821 69.864862,27.89612 69.266768,27.90599 c -1.180725,0.201381 -1.584031,1.024837 -1.768618,1.407537 -0.153675,0.388481 -0.2051,0.585313 -0.209712,1.092038 0.04957,0.883887 0.515618,1.395188 0.83923,1.701282 0.265453,0.20003 0.733032,0.57067 0.960047,0.642706 0.266059,0.08443 0,0 0.164275,0.04802 v 0 l 5.69061,0.04882 c 3.0666,0.0114 5.5755,0.0496 5.5755,0.0844 0,0.1137 -0.7194,2.0403 -1.0046,2.6899 -1.0509,2.3944 -2.8806,4.9261 -4.982,6.8937 -3.085,2.8887 -7.042,4.9752 -11.1515,5.8804 -0.654,0.1441 -2.5408,0.4901 -2.6721,0.4901 -0.0142,0 -0.0259,-3.8898 -0.0259,-8.644 V 31.597 l 0.2877,-0.2992 c 0.1581,-0.1644 1.6663,-1.43 3.3518,-2.813 C 66.0069,27.1019 72.105,22.0902 77.8728,17.3479 88.2739,8.79622 88.3621,8.72179 88.6214,8.22713 88.8419,7.80651 88.883,7.64511 88.8841,7.19884 88.8851,6.87833 88.8288,6.51541 88.7417,6.27793 88.5623,5.78917 87.973,5.16818 87.4499,4.91725 87.115,4.75661 86.845919,4.6619375 86.258881,4.6580813 85.553996,4.6534509 85.4329,4.75458 85.0805,4.92961 84.8449,5.04658 79.319,9.53584 71.4796,15.9787 c -7.2623,5.9687 -13.2892,10.872 -13.3934,10.8966 -0.1296,0.0305 -0.2709,-0.0112 -0.4469,-0.1321 -0.1421,-0.0978 -3.8264,-3.1119 -8.1883,-6.6988 -4.362,-3.5868 -8.0989,-6.6523 -8.3039,-6.8123 -0.4767,-0.372 -0.5947,-0.6202 -0.4342,-0.9116 0.2254,-0.4094 2.2052,-2.0919 3.6063,-3.0648 4.0412,-2.80612 9.4622,-4.35518 14.5609,-4.16089 4.1729,0.15901 8.0004,1.27007 11.5576,3.35547 1.1921,0.69885 1.3424,0.75265 2.1058,0.75258 0.5199,-5e-5 0.7156,-0.03567 1.0808,-0.19646 0.858,-0.37773 1.3344,-0.95005 1.5028,-1.80558 C 75.2184,6.7369 75.1186,6.01698 74.9107,5.63942 74.5737,5.02748 73.659,4.38497 71.671,3.36465 68.4038,1.6878 64.7786,0.632794 60.9836,0.254637 60.2589,0.18242 59.1891,0.141917 58.1233,0.13489 Z M 37.357,16.8023 c 0.0442,-0.0256 0.2656,0.0985 0.4919,0.2757 0.6553,0.5132 16.4762,13.5144 16.9811,13.9546 l 0.456,0.3976 v 8.7271 c 0,6.9374 -0.02,8.7249 -0.0989,8.7168 -0.6195,-0.0634 -3.0334,-0.5474 -3.874,-0.7769 C 47.5067,47.0583 44.0879,45.104 41.2002,42.3165 39.5859,40.7583 38.3217,39.1333 37.3207,37.3289 34.0483,31.43 33.7316,24.6291 36.4427,18.4715 c 0.4265,-0.9686 0.7618,-1.5807 0.9143,-1.6692 z"
       fill="white"
       id="path6"
       style="fill:#000000"
       sodipodi:nodetypes="ssscscsccccccccccccccccscccssccccccsczcscccssccscsccssccccccccssscccsssccccscccccc" />
  </g>
  <defs
     id="defs21">
    <clipPath
       id="clip0_79_48">
      <rect
         width="62"
         height="62"
         fill="white"
         transform="translate(27)"
         id="rect18" />
    </clipPath>
  </defs>
</svg>
