<?xml version="1.0" standalone="no"?>
<!DOCTYPE svg PUBLIC "-//W3C//DTD SVG 20010904//EN"
 "http://www.w3.org/TR/2001/REC-SVG-20010904/DTD/svg10.dtd">
<svg version="1.0" xmlns="http://www.w3.org/2000/svg"
  viewBox="0 0 512.000000 512.000000"
 preserveAspectRatio="xMidYMid meet">

<g transform="translate(0.000000,512.000000) scale(0.100000,-0.100000)"
fill="#000000" stroke="none">
<path d="M2052 4559 c-82 -40 -136 -103 -162 -187 -11 -35 -20 -79 -20 -96 0
-51 27 -130 64 -185 l35 -51 -45 0 c-63 0 -551 -78 -601 -96 -23 -8 -61 -33
-86 -54 -76 -67 -82 -92 -122 -496 -38 -388 -38 -399 13 -446 45 -42 69 -50
185 -55 106 -5 114 -4 147 18 19 14 44 42 56 64 15 31 26 40 48 42 35 3 39 14
-85 -219 l-100 -188 -42 0 c-23 0 -153 -7 -288 -15 -263 -15 -299 -22 -352
-73 -16 -15 -37 -43 -46 -62 -26 -52 -65 -217 -64 -275 1 -119 100 -215 223
-215 87 0 163 47 202 124 11 22 21 42 23 44 1 1 118 9 261 17 142 8 274 20
294 26 39 12 102 58 140 103 14 15 82 117 152 225 181 281 173 271 205 271 34
0 233 -78 233 -91 0 -6 -25 -108 -55 -229 -30 -121 -55 -230 -55 -244 l0 -24
-137 -4 c-155 -5 -183 -14 -230 -75 l-28 -36 -3 -203 c-2 -158 0 -209 11 -236
12 -29 12 -38 1 -59 -18 -33 -19 -401 0 -444 10 -25 10 -36 -1 -62 -9 -23 -13
-85 -13 -213 l0 -180 -165 0 -165 0 0 183 c-1 125 -5 191 -14 212 -10 25 -10
36 1 62 9 23 13 87 13 224 0 180 -1 194 -22 231 -13 22 -41 51 -64 64 l-41 24
-533 0 c-518 0 -533 -1 -569 -21 -20 -11 -48 -36 -61 -56 -24 -35 -25 -43 -28
-234 -3 -158 0 -204 12 -233 13 -31 13 -39 1 -63 -11 -21 -15 -71 -15 -210 l0
-183 -45 0 c-51 0 -99 -20 -109 -45 -12 -32 -6 -62 17 -83 l23 -22 2421 0
2422 0 20 26 c24 30 26 43 10 77 -14 32 -49 47 -104 47 l-45 0 0 175 c0 133
-4 184 -15 213 -14 34 -14 42 0 75 22 52 22 370 0 425 -14 34 -14 42 0 75 21
50 22 381 1 431 -12 29 -12 40 -1 73 21 57 20 379 0 431 -14 34 -14 42 0 75
12 28 15 77 15 214 0 193 -9 232 -61 280 -43 39 -72 43 -305 43 l-224 0 0 204
0 204 78 25 c42 14 239 78 437 142 396 128 412 136 422 212 6 46 -15 94 -51
118 -22 15 -184 69 -754 252 -134 43 -211 63 -227 59 -55 -14 -55 -15 -55
-641 l0 -575 -227 0 c-218 0 -230 -1 -268 -23 -22 -13 -49 -40 -62 -62 -21
-38 -23 -51 -22 -240 0 -150 3 -206 13 -225 12 -21 12 -29 0 -52 -19 -37 -20
-411 -1 -448 11 -21 11 -31 1 -55 -19 -43 -18 -421 0 -454 11 -20 11 -28 0
-50 -20 -37 -19 -415 0 -451 12 -21 12 -29 0 -52 -11 -20 -14 -73 -14 -213 l0
-185 -742 2 -743 3 0 170 0 170 505 0 505 0 6 -42 c7 -55 33 -83 75 -83 64 0
98 99 59 173 -12 24 -12 32 1 62 20 49 20 391 0 440 -13 31 -13 39 0 70 10 26
14 80 14 217 0 157 -3 189 -19 224 -34 75 -101 104 -242 104 l-86 0 -31 48
c-17 26 -37 54 -43 63 -10 13 -1 61 45 245 62 247 65 274 27 358 -29 66 -76
105 -234 195 -81 46 -147 86 -147 89 0 7 62 206 66 214 3 4 35 -10 72 -31 94
-53 134 -64 209 -58 47 3 76 12 111 34 46 28 452 463 493 528 23 36 25 114 5
153 -16 31 -132 136 -173 157 -33 18 -102 19 -137 4 -19 -9 -29 -8 -47 5 -33
23 -82 20 -105 -5 -16 -17 -18 -34 -16 -94 l3 -72 -97 -107 c-54 -59 -102
-105 -108 -103 -6 3 -64 34 -129 70 l-119 64 30 22 c38 27 82 113 82 161 0 52
-45 244 -70 295 -26 55 -86 110 -154 141 -79 37 -183 34 -264 -7z m214 -135
c19 -9 44 -29 55 -45 19 -28 69 -202 69 -245 0 -29 -28 -50 -75 -57 -48 -8
-71 -33 -80 -90 -12 -81 -12 -80 -63 -72 -26 4 -50 9 -53 11 -3 2 0 34 7 71 7
37 13 74 14 81 0 7 -23 37 -51 67 -74 79 -85 144 -37 223 39 64 140 91 214 56z
m2274 -309 c184 -59 341 -111 349 -115 9 -5 -121 -52 -341 -124 -196 -64 -358
-116 -362 -116 -3 0 -6 106 -6 236 0 188 3 235 13 231 7 -3 163 -53 347 -112z
m-1370 -110 c27 -22 49 -44 49 -50 0 -5 -22 -34 -49 -63 -35 -37 -54 -51 -64
-45 -20 12 -96 82 -96 89 0 11 95 113 103 111 5 -2 31 -20 57 -42z m-1189
-152 c36 -55 66 -71 166 -88 101 -17 138 -10 181 33 20 20 20 19 183 -69 100
-54 176 -89 194 -89 24 0 44 16 115 90 l85 90 55 -49 55 -48 -40 -44 c-194
-218 -205 -226 -268 -216 -18 3 -83 33 -144 66 -61 34 -122 61 -136 61 -52 0
-74 -35 -123 -195 -25 -82 -50 -154 -54 -159 -9 -9 -452 -57 -460 -49 -13 13
-3 284 14 366 17 80 17 89 2 112 -30 46 -48 49 -175 30 -64 -10 -126 -21 -138
-26 -40 -15 -51 -48 -64 -187 l-13 -134 -75 7 c-42 4 -76 8 -77 9 -1 0 7 81
17 178 20 195 32 230 82 254 34 15 485 92 553 93 36 1 43 -3 65 -36z m-335
-329 c-13 -34 -18 -222 -8 -314 6 -55 6 -101 1 -110 -7 -13 -8 -12 -9 3 0 9
-17 36 -39 60 l-39 42 15 155 c8 85 16 161 19 168 2 6 17 12 35 12 25 0 30 -3
25 -16z m-249 -328 c2 -2 -1 -36 -5 -77 -8 -84 -11 -86 -108 -74 -59 7 -54 -8
-39 118 l7 49 71 -7 c40 -4 73 -8 74 -9z m1040 -207 c87 -51 168 -101 180
-112 50 -45 49 -63 -21 -343 -60 -238 -64 -260 -51 -290 7 -18 21 -37 32 -43
13 -8 -11 -10 -99 -11 -103 0 -118 2 -118 17 0 9 29 131 65 270 l66 254 -18
37 c-17 35 -28 41 -173 100 -144 58 -160 63 -221 60 -104 -5 -122 -22 -279
-270 -143 -225 -196 -299 -233 -322 -16 -11 -95 -19 -307 -31 -157 -9 -298
-21 -313 -27 -29 -11 -49 -42 -61 -91 -15 -62 -85 -88 -126 -47 -25 25 -25 60
1 172 16 69 26 92 45 104 18 12 82 19 281 30 375 19 360 18 387 43 13 12 86
139 162 282 110 208 142 259 158 260 12 0 116 11 231 23 116 13 220 24 232 25
11 0 92 -40 180 -90z m2178 -124 l0 -170 -260 -6 c-143 -3 -261 -6 -262 -7
-15 -13 -32 -67 -27 -87 13 -52 28 -55 290 -55 193 0 244 -3 253 -14 8 -9 11
-64 9 -172 l-3 -159 -508 -3 -507 -2 2 172 3 173 100 3 c115 3 145 19 145 77
0 55 -27 69 -143 75 l-102 5 -3 160 c-1 87 0 165 2 172 4 11 103 13 508 11
l503 -3 0 -170z m-1637 -1007 c2 -167 2 -168 -20 -173 -13 -3 -241 -4 -508 -3
l-485 3 -3 173 -2 172 507 -2 508 -3 3 -167z m1640 6 c2 -128 0 -164 -11 -173
-11 -8 -147 -10 -508 -9 l-494 3 -3 173 -2 172 507 -2 508 -3 3 -161z m-3293
-509 l0 -170 -143 -5 c-136 -5 -145 -6 -163 -29 -26 -31 -24 -73 4 -99 21 -19
35 -22 162 -24 l140 -3 0 -170 0 -170 -505 0 -505 0 0 170 0 170 218 5 c202 5
220 7 233 24 21 29 18 83 -6 104 -18 15 -50 18 -233 22 l-212 5 -3 160 c-1 87
0 165 2 172 4 11 103 13 508 11 l503 -3 0 -170z m1650 0 l0 -170 -505 0 -505
0 -3 160 c-1 87 0 165 2 172 4 11 103 13 508 11 l503 -3 0 -170z m1640 0 l0
-170 -505 0 -505 0 -3 160 c-1 87 0 165 2 172 4 11 103 13 508 11 l503 -3 0
-170z m0 -347 c3 -13 4 -90 3 -173 l-3 -150 -507 -3 -508 -2 0 168 c0 93 3
172 7 175 3 4 230 7 504 7 l499 0 5 -22z"/>
</g>
</svg>
