<?xml version="1.0" standalone="no"?>
<!DOCTYPE svg PUBLIC "-//W3C//DTD SVG 20010904//EN"
 "http://www.w3.org/TR/2001/REC-SVG-20010904/DTD/svg10.dtd">
<svg version="1.0" xmlns="http://www.w3.org/2000/svg"
 viewBox="0 0 512.000000 512.000000"
 preserveAspectRatio="xMidYMid meet">

<g transform="translate(0.000000,512.000000) scale(0.100000,-0.100000)"
fill="#000000" stroke="none">
<path d="M745 5109 c-325 -54 -504 -401 -359 -698 83 -170 247 -271 439 -271
131 0 233 41 330 132 205 190 208 509 8 705 -64 63 -174 119 -263 133 -73 11
-85 11 -155 -1z"/>
<path d="M4210 5109 c-130 -22 -280 -129 -342 -245 -56 -103 -73 -250 -44
-360 44 -166 184 -306 351 -350 109 -29 257 -11 359 44 77 41 158 128 200 213
153 315 -54 674 -404 702 -36 3 -90 1 -120 -4z"/>
<path d="M2945 5039 c-71 -32 -131 -62 -132 -66 -2 -5 21 -66 52 -135 30 -70
55 -128 55 -130 0 -3 -35 2 -77 11 -117 22 -526 21 -653 -2 -78 -15 -321 -76
-320 -81 6 -36 102 -280 110 -278 6 1 55 14 108 28 147 38 272 54 428 54 134
0 295 -14 322 -29 8 -5 -31 -39 -108 -95 -66 -49 -120 -93 -120 -99 0 -5 37
-60 82 -121 45 -61 83 -113 84 -115 5 -6 594 432 594 442 0 9 -264 617 -284
653 -11 20 -14 19 -141 -37z"/>
<path d="M740 3834 c-191 -23 -403 -130 -521 -262 -108 -121 -185 -280 -208
-429 -6 -39 -11 -146 -11 -237 l0 -166 823 2 822 3 -1 185 c0 110 -6 209 -13
245 -67 310 -302 557 -604 634 -78 20 -222 33 -287 25z"/>
<path d="M4185 3830 c-335 -52 -599 -289 -686 -615 -18 -67 -21 -111 -23 -275
l-1 -195 824 -3 823 -2 -5 207 c-4 175 -8 220 -26 283 -48 163 -141 307 -267
413 -79 67 -235 147 -334 170 -85 21 -229 28 -305 17z"/>
<path d="M4344 2412 l-131 -15 5 -143 c6 -169 -8 -293 -49 -464 -28 -114 -72
-243 -89 -263 -3 -4 -33 52 -65 125 -32 73 -62 137 -66 141 -8 10 -269 -103
-269 -116 0 -5 66 -157 146 -338 108 -242 151 -329 163 -329 23 0 700 136 706
142 7 6 -46 271 -56 282 -5 5 -63 -2 -141 -17 -73 -15 -136 -27 -139 -27 -3 0
9 40 27 88 81 215 122 414 131 637 8 186 -3 316 -25 313 -10 0 -76 -8 -148
-16z"/>
<path d="M688 2362 c-19 -21 -398 -590 -398 -597 0 -5 236 -165 245 -165 2 0
41 55 86 122 l82 121 22 -54 c69 -170 181 -354 306 -504 81 -97 275 -285 293
-284 12 0 181 213 181 227 0 5 -33 36 -73 71 -92 79 -195 198 -277 321 -66 99
-172 306 -162 316 3 3 65 -17 137 -45 72 -28 137 -51 143 -51 7 0 35 61 63
136 l52 136 -32 13 c-17 7 -168 66 -335 130 -168 64 -308 118 -312 120 -3 3
-13 -3 -21 -13z"/>
<path d="M2480 2370 c-212 -40 -373 -207 -403 -416 -42 -292 186 -554 482
-554 137 0 250 47 347 144 187 188 190 485 7 677 -32 34 -76 72 -99 85 -94 55
-236 83 -334 64z"/>
<path d="M2450 1089 c-312 -39 -577 -267 -681 -584 -20 -62 -23 -95 -27 -287
l-4 -218 822 0 822 0 -4 218 c-4 192 -7 225 -27 287 -106 322 -368 544 -691
584 -94 12 -116 12 -210 0z"/>
</g>
</svg>
